%TF.GenerationSoftware,KiCad,Pcbnew,10.0.5*%
%TF.CreationDate,2026-10-06T13:54:26+05:30*%
%TF.ProjectId,pcb,7063622e-6b69-4636-9164-5f7063625858,rev?*%
%TF.SameCoordinates,Original*%
%TF.FileFunction,Legend,Bot*%
%TF.FilePolarity,Positive*%
%FSLAX46Y46*%
G04 Gerber Fmt 4.6, Leading zero omitted, Abs format (unit mm)*
G04 Created by KiCad (PCBNEW 10.0.5) date 2026-10-06 13:54:26*
%MOMM*%
%LPD*%
G01*
G04 APERTURE LIST*
%ADD10C,0.000000*%
%ADD11C,0.500000*%
G04 APERTURE END LIST*
D10*
G36*
X146231836Y-101496894D02*
G01*
X146289809Y-101501146D01*
X146347182Y-101508194D01*
X146403878Y-101518004D01*
X146459815Y-101530542D01*
X146514917Y-101545777D01*
X146569104Y-101563676D01*
X146622297Y-101584205D01*
X146674417Y-101607332D01*
X146725386Y-101633024D01*
X146775124Y-101661248D01*
X146823553Y-101691971D01*
X146870593Y-101725160D01*
X146916167Y-101760782D01*
X146960194Y-101798805D01*
X147002596Y-101839196D01*
X148685336Y-103528218D01*
X148689574Y-103532686D01*
X148693539Y-103537329D01*
X148697231Y-103542136D01*
X148700649Y-103547093D01*
X148703793Y-103552186D01*
X148706665Y-103557403D01*
X148709262Y-103562730D01*
X148711587Y-103568155D01*
X148713637Y-103573664D01*
X148715415Y-103579244D01*
X148716919Y-103584881D01*
X148718149Y-103590564D01*
X148719106Y-103596277D01*
X148719790Y-103602010D01*
X148720200Y-103607747D01*
X148720337Y-103613477D01*
X148720190Y-103619206D01*
X148719751Y-103624944D01*
X148719023Y-103630676D01*
X148718009Y-103636390D01*
X148716711Y-103642072D01*
X148715131Y-103647710D01*
X148713272Y-103653290D01*
X148711138Y-103658799D01*
X148708730Y-103664223D01*
X148706051Y-103669551D01*
X148703104Y-103674768D01*
X148699892Y-103679861D01*
X148696416Y-103684818D01*
X148692680Y-103689624D01*
X148688687Y-103694268D01*
X148684438Y-103698736D01*
X146999006Y-105384168D01*
X146956614Y-105424569D01*
X146912615Y-105462620D01*
X146867086Y-105498287D01*
X146820103Y-105531534D01*
X146771742Y-105562324D01*
X146722080Y-105590624D01*
X146671192Y-105616397D01*
X146619156Y-105639608D01*
X146566047Y-105660220D01*
X146511941Y-105678200D01*
X146456915Y-105693511D01*
X146401045Y-105706118D01*
X146344407Y-105715985D01*
X146287078Y-105723077D01*
X146229133Y-105727358D01*
X146170650Y-105728793D01*
X146170649Y-105728793D01*
X146112156Y-105727526D01*
X146054183Y-105723411D01*
X145996810Y-105716484D01*
X145940114Y-105706777D01*
X145884176Y-105694325D01*
X145829075Y-105679162D01*
X145774888Y-105661323D01*
X145721695Y-105640842D01*
X145669574Y-105617752D01*
X145618606Y-105592088D01*
X145568868Y-105563884D01*
X145520439Y-105533174D01*
X145473399Y-105499993D01*
X145427825Y-105464375D01*
X145383798Y-105426353D01*
X145341396Y-105385963D01*
X145301163Y-105343718D01*
X145263278Y-105299831D01*
X145227775Y-105254382D01*
X145194689Y-105207452D01*
X145164053Y-105159124D01*
X145135901Y-105109478D01*
X145110269Y-105058597D01*
X145087190Y-105006561D01*
X145066697Y-104953453D01*
X145048827Y-104899353D01*
X145033612Y-104844344D01*
X145021086Y-104788506D01*
X145011285Y-104731922D01*
X145004241Y-104674672D01*
X144999990Y-104616839D01*
X144998565Y-104558504D01*
X145241777Y-104558504D01*
X145242908Y-104604768D01*
X145246284Y-104650632D01*
X145251876Y-104696030D01*
X145259656Y-104740899D01*
X145269598Y-104785173D01*
X145281674Y-104828788D01*
X145295856Y-104871681D01*
X145312116Y-104913786D01*
X145330427Y-104955039D01*
X145350761Y-104995376D01*
X145373091Y-105034732D01*
X145397389Y-105073043D01*
X145423627Y-105110245D01*
X145451778Y-105146272D01*
X145481814Y-105181061D01*
X145513708Y-105214548D01*
X145547194Y-105246590D01*
X145581985Y-105276736D01*
X145618017Y-105304962D01*
X145655226Y-105331246D01*
X145693551Y-105355563D01*
X145732927Y-105377889D01*
X145773292Y-105398202D01*
X145814582Y-105416477D01*
X145856734Y-105432690D01*
X145899686Y-105446818D01*
X145943374Y-105458838D01*
X145987736Y-105468726D01*
X146032707Y-105476457D01*
X146078225Y-105482009D01*
X146124227Y-105485357D01*
X146170649Y-105486479D01*
X146217072Y-105485347D01*
X146263076Y-105481970D01*
X146308598Y-105476374D01*
X146353577Y-105468585D01*
X146397952Y-105458630D01*
X146441660Y-105446534D01*
X146484640Y-105432325D01*
X146526829Y-105416028D01*
X146568167Y-105397669D01*
X146608591Y-105377276D01*
X146648040Y-105354873D01*
X146686451Y-105330489D01*
X146723764Y-105304148D01*
X146759915Y-105275877D01*
X146794844Y-105245702D01*
X146828488Y-105213650D01*
X148428662Y-103613477D01*
X146831181Y-102009714D01*
X146797537Y-101977663D01*
X146762608Y-101947490D01*
X146726456Y-101919223D01*
X146689144Y-101892890D01*
X146650732Y-101868519D01*
X146611284Y-101846136D01*
X146570860Y-101825770D01*
X146529522Y-101807449D01*
X146487332Y-101791199D01*
X146444352Y-101777049D01*
X146400644Y-101765026D01*
X146356270Y-101755158D01*
X146311290Y-101747472D01*
X146265768Y-101741996D01*
X146219765Y-101738757D01*
X146173342Y-101737784D01*
X146126919Y-101738905D01*
X146080916Y-101742253D01*
X146035393Y-101747805D01*
X145990414Y-101755537D01*
X145946039Y-101765424D01*
X145902331Y-101777444D01*
X145859352Y-101791572D01*
X145817162Y-101807785D01*
X145775824Y-101826060D01*
X145735400Y-101846373D01*
X145695951Y-101868699D01*
X145657540Y-101893016D01*
X145620228Y-101919300D01*
X145584076Y-101947526D01*
X145549147Y-101977672D01*
X145515503Y-102009714D01*
X145483609Y-102043358D01*
X145453573Y-102078286D01*
X145425422Y-102114433D01*
X145399183Y-102151737D01*
X145374886Y-102190135D01*
X145352556Y-102229564D01*
X145332222Y-102269960D01*
X145313911Y-102311261D01*
X145297650Y-102353403D01*
X145283469Y-102396324D01*
X145271393Y-102439959D01*
X145261451Y-102484247D01*
X145253670Y-102529123D01*
X145248079Y-102574526D01*
X145244703Y-102620391D01*
X145243572Y-102666656D01*
X145244704Y-102712931D01*
X145248080Y-102758824D01*
X145253676Y-102804271D01*
X145261465Y-102849205D01*
X145271421Y-102893560D01*
X145283516Y-102937272D01*
X145297726Y-102980273D01*
X145314023Y-103022499D01*
X145332381Y-103063883D01*
X145352775Y-103104361D01*
X145375177Y-103143865D01*
X145399562Y-103182331D01*
X145425903Y-103219693D01*
X145454174Y-103255885D01*
X145484348Y-103290840D01*
X145516400Y-103324495D01*
X145717432Y-103525526D01*
X145721751Y-103530068D01*
X145725793Y-103534767D01*
X145729555Y-103539614D01*
X145733039Y-103544597D01*
X145736244Y-103549707D01*
X145739170Y-103554932D01*
X145741818Y-103560262D01*
X145744187Y-103565687D01*
X145746277Y-103571197D01*
X145748089Y-103576779D01*
X145749622Y-103582425D01*
X145750876Y-103588124D01*
X145751851Y-103593864D01*
X145752548Y-103599637D01*
X145752966Y-103605430D01*
X145753106Y-103611233D01*
X145752966Y-103617037D01*
X145752548Y-103622830D01*
X145751851Y-103628603D01*
X145750876Y-103634343D01*
X145749622Y-103640042D01*
X145748089Y-103645688D01*
X145746277Y-103651270D01*
X145744187Y-103656780D01*
X145741818Y-103662205D01*
X145739170Y-103667535D01*
X145736244Y-103672760D01*
X145733039Y-103677870D01*
X145729555Y-103682853D01*
X145725793Y-103687700D01*
X145721751Y-103692399D01*
X145717432Y-103696941D01*
X145514605Y-103899767D01*
X145482554Y-103933422D01*
X145452379Y-103968379D01*
X145424108Y-104004575D01*
X145397767Y-104041945D01*
X145373382Y-104080424D01*
X145350980Y-104119949D01*
X145330586Y-104160454D01*
X145312228Y-104201875D01*
X145295931Y-104244148D01*
X145281721Y-104287209D01*
X145269626Y-104330993D01*
X145259670Y-104375436D01*
X145251882Y-104420472D01*
X145246286Y-104466039D01*
X145242909Y-104512071D01*
X145241777Y-104558504D01*
X144998565Y-104558504D01*
X144998565Y-104558503D01*
X145000000Y-104500000D01*
X145004281Y-104441998D01*
X145011373Y-104384581D01*
X145021240Y-104327828D01*
X145033847Y-104271822D01*
X145049158Y-104216644D01*
X145067138Y-104162377D01*
X145087751Y-104109100D01*
X145110961Y-104056896D01*
X145136734Y-104005846D01*
X145165034Y-103956032D01*
X145195825Y-103907536D01*
X145229071Y-103860438D01*
X145264738Y-103814820D01*
X145302790Y-103770764D01*
X145343190Y-103728352D01*
X145460758Y-103610784D01*
X145344985Y-103495012D01*
X145304595Y-103452610D01*
X145266571Y-103408582D01*
X145230949Y-103363009D01*
X145197760Y-103315969D01*
X145167037Y-103267540D01*
X145138813Y-103217802D01*
X145113121Y-103166833D01*
X145089994Y-103114713D01*
X145069465Y-103061520D01*
X145051566Y-103007333D01*
X145036331Y-102952231D01*
X145023792Y-102896293D01*
X145013983Y-102839598D01*
X145006935Y-102782225D01*
X145002683Y-102724252D01*
X145001258Y-102665758D01*
X145002673Y-102607274D01*
X145006897Y-102549330D01*
X145013900Y-102492001D01*
X145023652Y-102435363D01*
X145036123Y-102379493D01*
X145051282Y-102324467D01*
X145069100Y-102270361D01*
X145089546Y-102217252D01*
X145112589Y-102165215D01*
X145138199Y-102114328D01*
X145166347Y-102064666D01*
X145197002Y-102016305D01*
X145230134Y-101969322D01*
X145265713Y-101923793D01*
X145303707Y-101879794D01*
X145344088Y-101837402D01*
X145386490Y-101797021D01*
X145430518Y-101759028D01*
X145476091Y-101723454D01*
X145523131Y-101690330D01*
X145571560Y-101659689D01*
X145621298Y-101631561D01*
X145672267Y-101605978D01*
X145724387Y-101582972D01*
X145777580Y-101562574D01*
X145831767Y-101544815D01*
X145886869Y-101529729D01*
X145942807Y-101517345D01*
X145999502Y-101507695D01*
X146056876Y-101500812D01*
X146114849Y-101496726D01*
X146173342Y-101495469D01*
X146231836Y-101496894D01*
G37*
D11*
X153106857Y-93543232D02*
X150106857Y-93543232D01*
X151535428Y-93543232D02*
X151535428Y-95257518D01*
X153106857Y-95257518D02*
X150106857Y-95257518D01*
X152964000Y-97828946D02*
X153106857Y-97543232D01*
X153106857Y-97543232D02*
X153106857Y-96971804D01*
X153106857Y-96971804D02*
X152964000Y-96686089D01*
X152964000Y-96686089D02*
X152678285Y-96543232D01*
X152678285Y-96543232D02*
X151535428Y-96543232D01*
X151535428Y-96543232D02*
X151249714Y-96686089D01*
X151249714Y-96686089D02*
X151106857Y-96971804D01*
X151106857Y-96971804D02*
X151106857Y-97543232D01*
X151106857Y-97543232D02*
X151249714Y-97828946D01*
X151249714Y-97828946D02*
X151535428Y-97971804D01*
X151535428Y-97971804D02*
X151821142Y-97971804D01*
X151821142Y-97971804D02*
X152106857Y-96543232D01*
X153106857Y-99257518D02*
X151106857Y-99257518D01*
X151678285Y-99257518D02*
X151392571Y-99400375D01*
X151392571Y-99400375D02*
X151249714Y-99543233D01*
X151249714Y-99543233D02*
X151106857Y-99828947D01*
X151106857Y-99828947D02*
X151106857Y-100114661D01*
X152821142Y-102828947D02*
X152964000Y-102686090D01*
X152964000Y-102686090D02*
X153106857Y-102257518D01*
X153106857Y-102257518D02*
X153106857Y-101971804D01*
X153106857Y-101971804D02*
X152964000Y-101543233D01*
X152964000Y-101543233D02*
X152678285Y-101257518D01*
X152678285Y-101257518D02*
X152392571Y-101114661D01*
X152392571Y-101114661D02*
X151821142Y-100971804D01*
X151821142Y-100971804D02*
X151392571Y-100971804D01*
X151392571Y-100971804D02*
X150821142Y-101114661D01*
X150821142Y-101114661D02*
X150535428Y-101257518D01*
X150535428Y-101257518D02*
X150249714Y-101543233D01*
X150249714Y-101543233D02*
X150106857Y-101971804D01*
X150106857Y-101971804D02*
X150106857Y-102257518D01*
X150106857Y-102257518D02*
X150249714Y-102686090D01*
X150249714Y-102686090D02*
X150392571Y-102828947D01*
X153106857Y-104543233D02*
X152964000Y-104257518D01*
X152964000Y-104257518D02*
X152821142Y-104114661D01*
X152821142Y-104114661D02*
X152535428Y-103971804D01*
X152535428Y-103971804D02*
X151678285Y-103971804D01*
X151678285Y-103971804D02*
X151392571Y-104114661D01*
X151392571Y-104114661D02*
X151249714Y-104257518D01*
X151249714Y-104257518D02*
X151106857Y-104543233D01*
X151106857Y-104543233D02*
X151106857Y-104971804D01*
X151106857Y-104971804D02*
X151249714Y-105257518D01*
X151249714Y-105257518D02*
X151392571Y-105400376D01*
X151392571Y-105400376D02*
X151678285Y-105543233D01*
X151678285Y-105543233D02*
X152535428Y-105543233D01*
X152535428Y-105543233D02*
X152821142Y-105400376D01*
X152821142Y-105400376D02*
X152964000Y-105257518D01*
X152964000Y-105257518D02*
X153106857Y-104971804D01*
X153106857Y-104971804D02*
X153106857Y-104543233D01*
X153106857Y-106828947D02*
X151106857Y-106828947D01*
X151392571Y-106828947D02*
X151249714Y-106971804D01*
X151249714Y-106971804D02*
X151106857Y-107257519D01*
X151106857Y-107257519D02*
X151106857Y-107686090D01*
X151106857Y-107686090D02*
X151249714Y-107971804D01*
X151249714Y-107971804D02*
X151535428Y-108114662D01*
X151535428Y-108114662D02*
X153106857Y-108114662D01*
X151535428Y-108114662D02*
X151249714Y-108257519D01*
X151249714Y-108257519D02*
X151106857Y-108543233D01*
X151106857Y-108543233D02*
X151106857Y-108971804D01*
X151106857Y-108971804D02*
X151249714Y-109257519D01*
X151249714Y-109257519D02*
X151535428Y-109400376D01*
X151535428Y-109400376D02*
X153106857Y-109400376D01*
X151106857Y-110400376D02*
X151106857Y-111543233D01*
X153106857Y-110828947D02*
X150535428Y-110828947D01*
X150535428Y-110828947D02*
X150249714Y-110971804D01*
X150249714Y-110971804D02*
X150106857Y-111257519D01*
X150106857Y-111257519D02*
X150106857Y-111543233D01*
X153106857Y-112971805D02*
X152964000Y-112686090D01*
X152964000Y-112686090D02*
X152821142Y-112543233D01*
X152821142Y-112543233D02*
X152535428Y-112400376D01*
X152535428Y-112400376D02*
X151678285Y-112400376D01*
X151678285Y-112400376D02*
X151392571Y-112543233D01*
X151392571Y-112543233D02*
X151249714Y-112686090D01*
X151249714Y-112686090D02*
X151106857Y-112971805D01*
X151106857Y-112971805D02*
X151106857Y-113400376D01*
X151106857Y-113400376D02*
X151249714Y-113686090D01*
X151249714Y-113686090D02*
X151392571Y-113828948D01*
X151392571Y-113828948D02*
X151678285Y-113971805D01*
X151678285Y-113971805D02*
X152535428Y-113971805D01*
X152535428Y-113971805D02*
X152821142Y-113828948D01*
X152821142Y-113828948D02*
X152964000Y-113686090D01*
X152964000Y-113686090D02*
X153106857Y-113400376D01*
X153106857Y-113400376D02*
X153106857Y-112971805D01*
X153106857Y-115257519D02*
X151106857Y-115257519D01*
X151678285Y-115257519D02*
X151392571Y-115400376D01*
X151392571Y-115400376D02*
X151249714Y-115543234D01*
X151249714Y-115543234D02*
X151106857Y-115828948D01*
X151106857Y-115828948D02*
X151106857Y-116114662D01*
X151106857Y-116686091D02*
X151106857Y-117828948D01*
X150106857Y-117114662D02*
X152678285Y-117114662D01*
X152678285Y-117114662D02*
X152964000Y-117257519D01*
X152964000Y-117257519D02*
X153106857Y-117543234D01*
X153106857Y-117543234D02*
X153106857Y-117828948D01*
M02*
