M48
; DRILL file KiCad 10.0.5 date 2026-10-06T13:54:22
; FORMAT={-:-/ absolute / metric / decimal}
; #@! TF.CreationDate,2026-10-06T13:54:22+05:30
; #@! TF.GenerationSoftware,Kicad,Pcbnew,10.0.5
; #@! TF.FileFunction,Plated,1,2,PTH
FMAT,2
METRIC
; #@! TA.AperFunction,Plated,PTH,ViaDrill
T1C0.300
; #@! TA.AperFunction,Plated,PTH,ComponentDrill
T2C1.000
; #@! TA.AperFunction,Plated,PTH,ComponentDrill
T3C1.100
%
G90
G05
T1
X142.5Y-113.464
X148.757Y-108.677
X149.002Y-109.907
X149.6Y-99.486
X151.5Y-101.191
T2
X135.0Y-69.55
X135.0Y-72.09
X135.0Y-74.63
X135.0Y-77.17
X135.0Y-79.71
X135.0Y-82.25
X135.0Y-84.79
X135.0Y-87.33
X135.0Y-95.59
X135.0Y-98.13
X135.0Y-100.67
X135.0Y-107.59
X135.0Y-110.13
X135.0Y-112.67
X137.46Y-119.25
X137.46Y-125.25
X140.0Y-119.25
X140.0Y-125.25
X142.8Y-78.75
X142.8Y-88.75
X142.96Y-71.25
X145.34Y-78.75
X145.34Y-88.75
X145.5Y-71.25
X146.5Y-117.67
X146.5Y-120.21
X146.5Y-122.75
X146.5Y-125.29
X147.88Y-78.75
X147.88Y-88.75
X150.42Y-78.75
X150.42Y-88.75
X152.96Y-78.75
X152.96Y-88.75
X154.96Y-112.25
X155.5Y-78.75
X155.5Y-88.75
X156.0Y-69.71
X156.0Y-72.25
X157.5Y-112.25
X158.04Y-78.75
X158.04Y-88.75
X158.5Y-95.475
X158.5Y-98.015
X158.5Y-104.475
X158.5Y-107.015
T3
X141.5Y-96.09
X141.5Y-106.25
M30
