%TF.GenerationSoftware,KiCad,Pcbnew,10.0.5*%
%TF.CreationDate,2026-10-06T13:54:25+05:30*%
%TF.ProjectId,pcb,7063622e-6b69-4636-9164-5f7063625858,rev?*%
%TF.SameCoordinates,Original*%
%TF.FileFunction,Copper,L2,Bot*%
%TF.FilePolarity,Positive*%
%FSLAX46Y46*%
G04 Gerber Fmt 4.6, Leading zero omitted, Abs format (unit mm)*
G04 Created by KiCad (PCBNEW 10.0.5) date 2026-10-06 13:54:25*
%MOMM*%
%LPD*%
G01*
G04 APERTURE LIST*
G04 Aperture macros list*
%AMRoundRect*
0 Rectangle with rounded corners*
0 $1 Rounding radius*
0 $2 $3 $4 $5 $6 $7 $8 $9 X,Y pos of 4 corners*
0 Add a 4 corners polygon primitive as box body*
4,1,4,$2,$3,$4,$5,$6,$7,$8,$9,$2,$3,0*
0 Add four circle primitives for the rounded corners*
1,1,$1+$1,$2,$3*
1,1,$1+$1,$4,$5*
1,1,$1+$1,$6,$7*
1,1,$1+$1,$8,$9*
0 Add four rect primitives between the rounded corners*
20,1,$1+$1,$2,$3,$4,$5,0*
20,1,$1+$1,$4,$5,$6,$7,0*
20,1,$1+$1,$6,$7,$8,$9,0*
20,1,$1+$1,$8,$9,$2,$3,0*%
G04 Aperture macros list end*
%TA.AperFunction,ComponentPad*%
%ADD10R,1.700000X1.700000*%
%TD*%
%TA.AperFunction,ComponentPad*%
%ADD11C,1.700000*%
%TD*%
%TA.AperFunction,ComponentPad*%
%ADD12RoundRect,0.249999X0.850001X-0.850001X0.850001X0.850001X-0.850001X0.850001X-0.850001X-0.850001X0*%
%TD*%
%TA.AperFunction,ComponentPad*%
%ADD13C,2.200000*%
%TD*%
%TA.AperFunction,ViaPad*%
%ADD14C,0.600000*%
%TD*%
%TA.AperFunction,Conductor*%
%ADD15C,0.200000*%
%TD*%
G04 APERTURE END LIST*
D10*
%TO.P,J1,1,Pin_1_1*%
%TO.N,/MODE_BUTTON*%
X158040000Y-88750000D03*
D11*
%TO.P,J1,2,Pin_2_2*%
%TO.N,/EMG*%
X155500000Y-88750000D03*
%TO.P,J1,3,Pin_3_3*%
%TO.N,/spare*%
X152960000Y-88750000D03*
%TO.P,J1,4,Pin_4_4*%
X150420000Y-88750000D03*
%TO.P,J1,5,Pin_5_5*%
%TO.N,/I2C_SDA*%
X147880000Y-88750000D03*
%TO.P,J1,6,Pin_6_6*%
%TO.N,/I2C_SCL*%
X145340000Y-88750000D03*
%TO.P,J1,7,Pin_7_7*%
%TO.N,/spare*%
X142800000Y-88750000D03*
%TD*%
D10*
%TO.P,J5,1,Pin_1_1*%
%TO.N,/B-*%
X154960000Y-112250000D03*
D11*
%TO.P,J5,2,Pin_2_2*%
%TO.N,/B+*%
X157500000Y-112250000D03*
%TD*%
D10*
%TO.P,J9,1,Pin_1_1*%
%TO.N,/2*%
X137460000Y-119250000D03*
D11*
%TO.P,J9,2,Pin_2_2*%
%TO.N,/+*%
X140000000Y-119250000D03*
%TD*%
D10*
%TO.P,J2,1,Pin_1_1*%
%TO.N,/1*%
X158040000Y-78750000D03*
D11*
%TO.P,J2,2,Pin_2_2*%
%TO.N,/TEMP*%
X155500000Y-78750000D03*
%TO.P,J2,3,Pin_3_3*%
%TO.N,/spare*%
X152960000Y-78750000D03*
%TO.P,J2,4,Pin_4_4*%
%TO.N,/1*%
X150420000Y-78750000D03*
%TO.P,J2,5,Pin_5_5*%
%TO.N,/+*%
X147880000Y-78750000D03*
%TO.P,J2,6,Pin_6_6*%
%TO.N,/2*%
X145340000Y-78750000D03*
%TO.P,J2,7,Pin_7_7*%
%TO.N,/5V USB*%
X142800000Y-78750000D03*
%TD*%
D10*
%TO.P,J3,1,Pin_1_1*%
%TO.N,/+*%
X135000000Y-69550000D03*
D11*
%TO.P,J3,2,Pin_2_2*%
%TO.N,/2*%
X135000000Y-72090000D03*
%TO.P,J3,3,Pin_3_3*%
%TO.N,/I2C_SCL*%
X135000000Y-74630000D03*
%TO.P,J3,4,Pin_4_4*%
%TO.N,/I2C_SDA*%
X135000000Y-77170000D03*
%TO.P,J3,5,Pin_5_5*%
%TO.N,/XDA*%
X135000000Y-79710000D03*
%TO.P,J3,6,Pin_6_6*%
%TO.N,/XCL*%
X135000000Y-82250000D03*
%TO.P,J3,7,Pin_7_7*%
%TO.N,/AD0*%
X135000000Y-84790000D03*
%TO.P,J3,8,Pin_8_8*%
%TO.N,/INT*%
X135000000Y-87330000D03*
%TD*%
D10*
%TO.P,J7,1,Pin_1_1*%
%TO.N,/BAT+*%
X146500000Y-125290000D03*
D11*
%TO.P,J7,2,Pin_2_2*%
%TO.N,/B+*%
X146500000Y-122750000D03*
%TO.P,J7,3,Pin_3_3*%
%TO.N,/B-*%
X146500000Y-120210000D03*
%TO.P,J7,4,Pin_4_4*%
%TO.N,/BAT-*%
X146500000Y-117670000D03*
%TD*%
D10*
%TO.P,J4,1,Pin_1_1*%
%TO.N,/+*%
X135000000Y-95590000D03*
D11*
%TO.P,J4,2,Pin_2_2*%
%TO.N,/TEMP*%
X135000000Y-98130000D03*
%TO.P,J4,3,Pin_3_3*%
%TO.N,/2*%
X135000000Y-100670000D03*
%TD*%
D10*
%TO.P,SW1,1,1_1*%
%TO.N,/MODE_BUTTON*%
X156000000Y-69710000D03*
D11*
%TO.P,SW1,2,2_2*%
%TO.N,/2*%
X156000000Y-72250000D03*
%TD*%
D10*
%TO.P,J12,1,Pin_1_1*%
%TO.N,/BAT+*%
X142960000Y-71250000D03*
D11*
%TO.P,J12,2,Pin_2_2*%
%TO.N,/BAT-*%
X145500000Y-71250000D03*
%TD*%
D10*
%TO.P,J11,1,Pin_1_1*%
%TO.N,/-*%
X158500000Y-95475000D03*
D11*
%TO.P,J11,2,Pin_2_2*%
%TO.N,/+*%
X158500000Y-98015000D03*
%TD*%
D12*
%TO.P,D1,1,K_1*%
%TO.N,/+*%
X141500000Y-106250000D03*
D13*
%TO.P,D1,2,A_2*%
X141500000Y-96090000D03*
%TD*%
D10*
%TO.P,J6,1,Pin_1_1*%
%TO.N,/EMG*%
X135000000Y-107590000D03*
D11*
%TO.P,J6,2,Pin_2_2*%
%TO.N,/2*%
X135000000Y-110130000D03*
%TO.P,J6,3,Pin_3_3*%
%TO.N,/+*%
X135000000Y-112670000D03*
%TD*%
D10*
%TO.P,J8,1,Pin_1_1*%
%TO.N,/BAT+*%
X137460000Y-125250000D03*
D11*
%TO.P,J8,2,Pin_2_2*%
%TO.N,/BAT-*%
X140000000Y-125250000D03*
%TD*%
D10*
%TO.P,J10,1,Pin_1_1*%
%TO.N,/-*%
X158500000Y-104475000D03*
D11*
%TO.P,J10,2,Pin_2_2*%
%TO.N,/+*%
X158500000Y-107015000D03*
%TD*%
D14*
%TO.N,/2*%
X142500000Y-113464000D03*
X148757000Y-108677000D03*
%TO.N,/+*%
X149600000Y-99486000D03*
%TO.N,/-*%
X151500000Y-101191000D03*
X149002000Y-109907000D03*
%TD*%
%TO.N,/EMG*%
D15*
X136660000Y-107590000D02*
X155500000Y-88750000D01*
X135000000Y-107590000D02*
X136660000Y-107590000D01*
%TO.N,/spare*%
X150420000Y-88750000D02*
X149229000Y-87559000D01*
X146610000Y-88311000D02*
X146610000Y-89109000D01*
X143959000Y-89909000D02*
X142800000Y-88750000D01*
X150420000Y-88750000D02*
X152960000Y-88750000D01*
X146610000Y-89109000D02*
X145810000Y-89909000D01*
X147362000Y-87559000D02*
X146610000Y-88311000D01*
X145810000Y-89909000D02*
X143959000Y-89909000D01*
X149229000Y-87559000D02*
X147362000Y-87559000D01*
%TO.N,/I2C_SDA*%
X136390000Y-78559800D02*
X136390000Y-84036000D01*
X142665000Y-90311000D02*
X146319000Y-90311000D01*
X135000000Y-77170000D02*
X136390000Y-78559800D01*
X146319000Y-90311000D02*
X147880000Y-88750000D01*
X136390000Y-84036000D02*
X142665000Y-90311000D01*
%TO.N,/I2C_SCL*%
X145340000Y-84970000D02*
X145340000Y-88750000D01*
X135000000Y-74630000D02*
X145340000Y-84970000D01*
%TO.N,/B-*%
X154768000Y-113402000D02*
X152768000Y-113402000D01*
X154768000Y-113402000D02*
X154960000Y-113402000D01*
X146500000Y-119670000D02*
X146500000Y-120210000D01*
X152768000Y-113402000D02*
X146500000Y-119670000D01*
X154960000Y-112250000D02*
X154960000Y-113402000D01*
%TO.N,/B+*%
X148500000Y-122210000D02*
X146500000Y-122210000D01*
X157500000Y-113210000D02*
X148500000Y-122210000D01*
X146500000Y-122210000D02*
X146500000Y-122750000D01*
X157500000Y-113210000D02*
X157500000Y-112250000D01*
%TO.N,/2*%
X148757000Y-108677000D02*
X147287000Y-108677000D01*
X151840000Y-72250000D02*
X145340000Y-78750000D01*
X139607000Y-116357000D02*
X142500000Y-113464000D01*
X135000000Y-110130000D02*
X133848000Y-108978000D01*
X145340000Y-78750000D02*
X138680000Y-72090000D01*
X137460000Y-119250000D02*
X137460000Y-118098000D01*
X156000000Y-72250000D02*
X151840000Y-72250000D01*
X147287000Y-108677000D02*
X142500000Y-113464000D01*
X138680000Y-72090000D02*
X135000000Y-72090000D01*
X137460000Y-118098000D02*
X137866000Y-118098000D01*
X133848000Y-108978000D02*
X133848000Y-101822000D01*
X133848000Y-101822000D02*
X135000000Y-100670000D01*
X137866000Y-118098000D02*
X139607000Y-116357000D01*
%TO.N,/+*%
X135000000Y-112670000D02*
X135080000Y-112670000D01*
X159652000Y-102110000D02*
X157029000Y-99486000D01*
X135000000Y-69550000D02*
X135000000Y-70701700D01*
X157029000Y-99486000D02*
X158500000Y-98015000D01*
X159652000Y-105863000D02*
X159652000Y-102110000D01*
X142836000Y-106250000D02*
X141500000Y-106250000D01*
X134598000Y-73360000D02*
X137110000Y-73360000D01*
X158500000Y-107015000D02*
X159652000Y-105863000D01*
X143950000Y-79054200D02*
X143950000Y-78273700D01*
X143952000Y-79054200D02*
X143950000Y-79054200D01*
X139500000Y-75750000D02*
X139500000Y-77750000D01*
X141500000Y-96090000D02*
X136652000Y-96090000D01*
X135080000Y-112670000D02*
X141500000Y-106250000D01*
X133848000Y-71565400D02*
X133848000Y-72610200D01*
X149600000Y-99486000D02*
X142836000Y-106250000D01*
X135000000Y-95590000D02*
X136152000Y-95590000D01*
X142500000Y-80750000D02*
X145880000Y-80750000D01*
X133848000Y-72610200D02*
X134598000Y-73360000D01*
X139500000Y-77750000D02*
X142500000Y-80750000D01*
X135000000Y-70701700D02*
X134712000Y-70701700D01*
X134712000Y-70701700D02*
X133848000Y-71565400D01*
X149600000Y-99486000D02*
X157029000Y-99486000D01*
X137110000Y-73360000D02*
X139500000Y-75750000D01*
X136652000Y-96090000D02*
X136152000Y-95590000D01*
X145880000Y-80750000D02*
X147880000Y-78750000D01*
%TO.N,/1*%
X151572000Y-79902000D02*
X150420000Y-78750000D01*
X156888000Y-78750000D02*
X156888000Y-79037900D01*
X156024000Y-79902000D02*
X151572000Y-79902000D01*
X156888000Y-79037900D02*
X156024000Y-79902000D01*
X158040000Y-78750000D02*
X156888000Y-78750000D01*
%TO.N,/TEMP*%
X135000000Y-98130000D02*
X145275000Y-98130000D01*
X156657000Y-77593400D02*
X155500000Y-78750000D01*
X145275000Y-98130000D02*
X154230000Y-89175000D01*
X159036000Y-77593400D02*
X156657000Y-77593400D01*
X159192000Y-79900000D02*
X159192000Y-77748700D01*
X154230000Y-89175000D02*
X154230000Y-84862000D01*
X154230000Y-84862000D02*
X159192000Y-79900000D01*
X159192000Y-77748700D02*
X159036000Y-77593400D01*
%TO.N,/-*%
X158500000Y-104475000D02*
X157348000Y-104475000D01*
X157350000Y-104475000D02*
X151918000Y-109907000D01*
X154064000Y-101191000D02*
X157348000Y-104475000D01*
X151918000Y-109907000D02*
X149002000Y-109907000D01*
X151500000Y-101191000D02*
X154064000Y-101191000D01*
%TO.N,/BAT+*%
X138612000Y-125538000D02*
X139485000Y-126411000D01*
X144227000Y-126411000D02*
X145348000Y-125290000D01*
X139485000Y-126411000D02*
X144227000Y-126411000D01*
X138612000Y-125250000D02*
X138612000Y-125538000D01*
X146500000Y-125290000D02*
X145348000Y-125290000D01*
X137460000Y-125250000D02*
X138612000Y-125250000D01*
%TO.N,/BAT-*%
X146500000Y-117670000D02*
X144850000Y-119320000D01*
X144850000Y-119320000D02*
X144850000Y-120400000D01*
X144850000Y-120400000D02*
X140000000Y-125250000D01*
X140000000Y-125492000D02*
X140000000Y-125250000D01*
%TD*%
M02*
